<svg width="11" height="11" viewBox="0 0 11 11" fill="none" xmlns="http://www.w3.org/2000/svg">
<path d="M8.99995 5.37006C9.12336 6.2023 8.98121 7.05227 8.59371 7.79907C8.20621 8.54587 7.5931 9.15147 6.84158 9.52973C6.09006 9.90799 5.2384 10.0397 4.40774 9.90599C3.57708 9.77233 2.80971 9.38014 2.21479 8.78522C1.61987 8.1903 1.22768 7.42293 1.09402 6.59227C0.960354 5.76161 1.09202 4.90995 1.47028 4.15843C1.84854 3.40691 2.45414 2.7938 3.20094 2.4063C3.94773 2.0188 4.79771 1.87665 5.62995 2.00006C6.47887 2.12594 7.2648 2.52152 7.87164 3.12836C8.47849 3.73521 8.87407 4.52113 8.99995 5.37006Z" stroke="white" stroke-width="2" stroke-linecap="round" stroke-linejoin="round"/>
<path d="M8.99995 5.37006C9.12336 6.2023 8.98121 7.05227 8.59371 7.79907C8.20621 8.54587 7.5931 9.15147 6.84158 9.52973C6.09006 9.90799 5.2384 10.0397 4.40774 9.90599C3.57708 9.77233 2.80971 9.38014 2.21479 8.78522C1.61987 8.1903 1.22768 7.42293 1.09402 6.59227C0.960354 5.76161 1.09202 4.90995 1.47028 4.15843C1.84854 3.40691 2.45414 2.7938 3.20094 2.4063C3.94773 2.0188 4.79771 1.87665 5.62995 2.00006C6.47887 2.12594 7.2648 2.52152 7.87164 3.12836C8.47849 3.73521 8.87407 4.52113 8.99995 5.37006Z" stroke="white" stroke-width="2" stroke-linecap="round" stroke-linejoin="round"/>
</svg>
